<svg id="Layer_1" data-name="Layer 1" xmlns="http://www.w3.org/2000/svg" viewBox="0 0 519.83 294.9">
  <defs>
    <style>
      .cls-1 {
        stroke-miterlimit: 10;
        stroke-width: 4px;
      }
          path {
      fill: #ccc;
    }
    @media (prefers-color-scheme: dark) {
      path {
        fill: #fff;
      }
    }
    </style>
  </defs>
  <g>
    <g>
      <path class="cls-1" d="M335.87,188.44a8.86,8.86,0,0,1-.83,2c-.25.43-.57.83-.85,1.24a8.31,8.31,0,0,0-.84,1.72,30.6,30.6,0,0,0-2.05,5.83,4,4,0,0,0,1,2.26,12.73,12.73,0,0,0,2.17,2.23,9.32,9.32,0,0,0,2.4,1.53c.37.15,1.63.63,1.87.06,4.85-11.54,6.44-24.14,10.23-36a55.36,55.36,0,0,1,3.61-8.94L344.84,154c-.08,6.4-2.88,12.38-5,18.29s-4,12.19-5.95,18.28q-4.59,14.23-9.29,28.43c-4.08,12.33-8.1,24.68-11.79,37.13-4,13.6-7.65,27.3-11,41.08-1.5,6.15-3.33,12.24-4.56,18.45S295,328.54,295.57,335a25.53,25.53,0,0,0,1,5,6.65,6.65,0,0,0,2.77,3.14c.41.26,2.26,1.38,2.35.27.24-2.85.35-5.7.6-8.55a76.47,76.47,0,0,1,1.42-9.14c1.32-6.23,3.1-12.37,4.78-18.51,1.78-6.5,3.34-13.06,5.07-19.57q2.76-10.36,5.75-20.68c3.79-13.05,7.92-26,12.2-38.87q4.56-13.75,9-27.53,2.88-8.87,5.71-17.75c1.94-6.12,4.81-12,6-18.38a25.06,25.06,0,0,0,.47-4.49c0-1.83-2-3.65-3.29-4.67-.53-.44-3.78-2.92-4.44-1.65a79.16,79.16,0,0,0-5.94,17c-1.59,6.25-2.9,12.58-4.57,18.82a78.87,78.87,0,0,1-3,9.38l7.42,6.07a38.18,38.18,0,0,1,1.75-5.79,29.41,29.41,0,0,0,.66-3.75c.16-.82.44-1.62.53-2.46.2-1.84-5.43-6.44-6-4.42" transform="translate(5.83 -108.99)"/>
      <path class="cls-1" d="M302.73,159.48a195.74,195.74,0,0,1-21.82,13c-7.26,3.76-14.9,7.45-22.78,9.72l7.11,7a404.13,404.13,0,0,1,71.17-35.39A392,392,0,0,1,394.71,137c18.62-3.89,37.94-6.53,57-5.07a93.51,93.51,0,0,1,26.18,5.41c2,.78,4,1.65,6,2.62-.48-.24.71.37.9.48.48.25.95.52,1.42.78.93.54,1.84,1.11,2.76,1.68.67.43.12.08,0,0l.59.4,1.32.94,1.29,1,.56.44c1,.75-.72-.63.2.17.77.67,1.55,1.34,2.29,2.05q.33.3.66.63c-.12-.11-.65-.67-.06-.06s1,1,1.42,1.51c6.87,7.64,9,18.88,7.82,29.2-1.32,11.2-6.24,21.45-12,31-11.83,19.66-27.95,36.53-45.09,51.63s-35.42,28.46-54.22,41.15c-21.68,14.64-44.23,28.13-67.91,39.29-22.91,10.8-47,19.56-72,23.9-5.05.87-10.13,1.43-15.19,2.15-3.76.52-7.52,1.07-11.31,1.38a46.07,46.07,0,0,1-11.07-.21,21.11,21.11,0,0,1-4.67-1.27,9,9,0,0,1-1.79-.93c-.12-.08-.51-.37,0,0-.14-.1-.29-.24-.44-.33-.54-.32,0,0,.08.09l-.62-.56c.64.58-.15-.17-.32-.36.45.51-.35-.48-.45-.61a17.17,17.17,0,0,1-1.07-1.94,20.84,20.84,0,0,1-1.89-6.22,4.93,4.93,0,0,0-2.21-3c-.22-.17-2.51-1.51-2.38-.44.54,4.4,1.48,8.27,4.3,11.81a23.77,23.77,0,0,0,10.68,7.67c7.55,2.63,15.86,1.82,23.64.89a306,306,0,0,0,31.72-5,272,272,0,0,0,37.51-11.59c25.16-9.71,49.08-22.49,72-36.7a616,616,0,0,0,59.37-41.67c18.55-14.8,36.24-31.13,50.5-50.2,6.82-9.13,13.17-19.06,17.39-29.7s6-22.18,2.85-33.23-11-19.81-20.07-26.34A77.38,77.38,0,0,0,464,127.92c-19.15-4.84-39.57-3.79-58.94-1a362.28,362.28,0,0,0-55.82,13,392.93,392.93,0,0,0-74.53,32.39q-8.64,4.84-17.06,10.09c-1.79,1.12,5,7.73,7.11,7,15.84-5.26,30.5-14.58,43.37-25.09,1.23-1-3.77-6.05-5.43-4.89" transform="translate(5.83 -108.99)"/>
    </g>
    <g>
      <path class="cls-1" d="M84.27,168.88a86.16,86.16,0,0,0-12.66,5.43,100.67,100.67,0,0,0-12,6.85c-1.16.78,1.77,3.71,2.14,4.06a12.48,12.48,0,0,0,2.52,1.89c.62.33,1.68.94,2.4.69,10.39-3.73,19.57-10.43,29.28-15.59,9.89-5.27,20-10.09,30.31-14.54,19.68-8.51,39.91-15.78,60.16-22.8a349.57,349.57,0,0,1,42.33-12.05c8.14-1.72,16.36-3.46,24.64-4.41,8.44-1,17.77-1.28,25.7,2.1l.73.32.15.08c.4.22.8.46,1.2.67.61.31-.55-.4,0,0l.68.46c.49.32-.05-.06-.12-.1.94.53-.37-.5.3.27-.64-.74.37.53.16.22a7.94,7.94,0,0,0,.43.8,9.4,9.4,0,0,1,.56,2.16c.44,3.86-1.14,7.67-3,11a80.09,80.09,0,0,1-7.78,10.91q-4.94,6.15-10.26,12c-14.36,15.84-30.35,30.09-46.45,44.11-17,14.85-34,29.84-51,44.68q-27,23.51-54.33,46.68-27.09,23.07-54.2,46.11c-8.87,7.52-17.81,15-26.54,22.66-4.32,3.81-8.58,7.67-12.75,11.66-3.46,3.32-7.08,6.54-10.39,10C3.42,388.4.84,391.88,0,396.36c-.16.89,1.17,2.13,1.68,2.61a6.28,6.28,0,0,0,3.09,1.85c8.58,1.07,16.55-2.64,24.33-5.66,9.22-3.59,18.6-6.73,28-9.93,20.59-7.05,41.34-13.75,62.31-19.58,10.4-2.89,20.9-5.44,31.38-8s21-5.1,31.58-7.3c20.48-4.26,41.14-7.14,62.09-7.13a150,150,0,0,1,18.48.79,50.11,50.11,0,0,1,9.62,2,18.39,18.39,0,0,1,6.85,3.58,9.55,9.55,0,0,1,1.88,2.73,4.27,4.27,0,0,0,2.24,1.92c.77.25,1-.07.67-.79-2.72-5.78-8.87-9.09-14.75-10.78-6.5-1.88-13.35-2.32-20.08-2.45a284.18,284.18,0,0,0-56,4.58c-21.71,3.89-43.15,9.42-64.49,14.95-21.58,5.58-42.86,12.18-64,19.14-10.53,3.47-21.1,6.82-31.6,10.37-8.5,2.88-16.92,6.51-26,7.15a21.35,21.35,0,0,1-6.32-.51l4.76,4.47c1.45-4.16,5-7.72,8.14-10.65,3.75-3.47,7.61-6.85,11.43-10.25,8.84-7.87,17.85-15.53,26.92-23.13Q79.72,333.2,107,309.82q27.6-23.47,55.05-47.13c17.69-15.31,35.15-30.89,52.82-46.22,16.39-14.23,32.85-28.43,47.92-44.08a246.11,246.11,0,0,0,20.7-24c4.67-6.31,9.78-14.64,5.83-22.53-2.56-5.11-7.74-8.75-12.79-11.12a40.9,40.9,0,0,0-13.31-3.46c-9-.88-18.08.29-27,1.87a345.86,345.86,0,0,0-44.12,10.48c-8.27,2.62-16.46,5.51-24.62,8.44-10.73,3.85-21.45,7.71-32.05,11.88s-20.78,8.51-30.92,13.34-20.18,10.34-30,16.14a122.53,122.53,0,0,1-14.55,7.48l7.06,6.64a123.42,123.42,0,0,1,10.82-7.3,60.7,60.7,0,0,1,11.76-5.75c1.85-.64-3.37-6.26-5.43-5.63" transform="translate(5.83 -108.99)"/>
      <path class="cls-1" d="M97.13,262.82a9.59,9.59,0,0,0-4.33.31c-2,.82.72,3.91,1.52,4.71A14.76,14.76,0,0,0,98,270.7a4.83,4.83,0,0,0,2.92.84,75,75,0,0,0,11.25-3.38c4-1.42,8.11-2.47,12.22-3.53,8.7-2.24,17.42-4.37,26.19-6.25,17.47-3.76,35-7.31,52.75-9.67,5-.67,10-1.25,15-1.78,2.51-.26,5-.51,7.54-.72l3.2-.31a7.59,7.59,0,0,1,2.73,0c.81.21.41-.77.2-1.07a5,5,0,0,0-2.12-1.75,10.74,10.74,0,0,0-5.25-.44c-2.26.19-4.52.3-6.77.47q-6.84.51-13.67,1.19c-9.18.9-18.33,2.12-27.47,3.38s-18.33,2.86-27.46,4.49-18,3.23-26.92,5.12c-4.95,1-9.93,2.08-14.82,3.36-4.5,1.17-9.23,2.87-13.94,2.49l7.32,8.4a7.15,7.15,0,0,0,3.41-1.29c.48-.3,0-1.33-.14-1.66a8.5,8.5,0,0,0-1.73-2.39,17.58,17.58,0,0,0-2.23-1.91,7.43,7.43,0,0,0-3.09-1.47" transform="translate(5.83 -108.99)"/>
    </g>
  </g>
</svg>
