<svg xmlns="http://www.w3.org/2000/svg" viewBox="0 0 935.48 329.19"><g id="Layer_2" data-name="Layer 2"><g id="Layer_2-2" data-name="Layer 2"><path d="M271.42,155a2.17,2.17,0,0,1-.8,0l7.2,7.11a13.87,13.87,0,0,1,.63-2.84c.19-.75-.78-2.15-1.15-2.63a14.59,14.59,0,0,0-2.54-2.61,11,11,0,0,0-2.79-1.78c-.44-.18-1.9-.73-2.19-.07-4.19,9.81-7.72,19.9-11.26,30-3.42,9.72-6.29,19.68-7.24,30a18.5,18.5,0,0,0,0,4.76,10.78,10.78,0,0,0,3.7,6.15c1.75,1.55,4.13,3.1,6.59,2.54a10.27,10.27,0,0,0,4.12-2.5c2.58-2.18,4.54-5,6.63-7.67,2.86-3.61,5.83-7.14,8.67-10.77,3.42-4.35,6.82-8.73,10.42-12.93,1.75-2,3.54-4,5.41-6,.95-1,1.93-2,2.89-2.95a22.14,22.14,0,0,0,2.63-3.45c.56-.83-2.07-3.24-2.88-2.85a19.61,19.61,0,0,0-3.06,1.57,30.26,30.26,0,0,0-2.62,2.31c-1.64,1.54-3.22,3.14-4.77,4.78-3.15,3.33-6.15,6.81-9.09,10.32-5.16,6.15-10.29,12.32-15.54,18.4-2.06,2.39-4.63,5.07-7.92,5.48a4.7,4.7,0,0,1-1,0l-.26,0c-.8,0,0,0,0,0,1.19-.39,2.72,1.92,3.54,3.14.12.16.12.57.09.12,0-.14-.08-.31-.1-.45,0,.26,0,0,0-.1a17.79,17.79,0,0,1,.28-4,145.35,145.35,0,0,1,7.3-27.09c3.79-10.45,7.49-21,11.94-31.17l-8.67-7.09a15.4,15.4,0,0,0-.37,3c.07,2.54,3.26,5.14,5.26,6.29.61.35,1.87,1.05,2.66.84,1.19-.3.53-1.65.21-2.35-.11-.23-.24-.72-.35-1a8.12,8.12,0,0,0-2.47-3.11c-.78-.63-2-1.61-3.1-1.46Z"/><path d="M312.53,158.9c-5,2.22-8.24,6.71-11.32,11.06a65.69,65.69,0,0,0-7.91,14.54c-2.12,5.59-3.72,11.41-1,17.09,1.94,4.07,6.12,8.49,10.69,9.42,5.53,1.12,10.31-4.82,13.41-8.51a55.3,55.3,0,0,0,8.55-13c2-4.6,4.07-9.78,3.68-14.9a13.47,13.47,0,0,0-3.67-8.26,11.84,11.84,0,0,0-5.4-3.6,3.68,3.68,0,0,0-3.33.8c-.82.62,1.17,2.68,1.47,3,.75.73,2.32,2.23,3.51,1.95a5.35,5.35,0,0,1,1.38-.2c.23,0,.44.1.66.11.71,0-.1-.09-.3-.2-.79-.42-1.06-1-1.69-1.51-.33-.27.08.14.17.31a7.26,7.26,0,0,1,.35,1,13,13,0,0,1,0,5.63,39,39,0,0,1-3.8,10.59,56.21,56.21,0,0,1-7.68,10.89,37.42,37.42,0,0,1-5.92,5.68c-1.83,1.36-3.46,2.45-5.78,2.68-.22,0-.44,0-.66,0,.73-.06.16,0-.1,0-.56-.09-.43-.1.11.08l-.3-.11c-.64-.32,1.07.58.44.22,1.4.8,1,.69.68.45,1.53,1.15,1.05.88.74.59,1.42,1.31.95,1,.66.65-.47-.53.54.66.49.6-.63-.82.38.79.08.14-.15-.34-.44-1.31-.21-.33A11.25,11.25,0,0,1,300,199a41.23,41.23,0,0,1,2-7.05,62,62,0,0,1,7.6-14.19,70,70,0,0,1,4.82-6.3,52.92,52.92,0,0,1,5.57-5.22c.51-.43-.08-1.67-.28-2a11.3,11.3,0,0,0-1.92-2.43,12.88,12.88,0,0,0-2.67-2.1c-.62-.34-1.85-1.13-2.56-.81Z"/><path d="M348.69,160.17c-.39.73-1.41.6-2.06,1.11l8.08,6.6c.51-2.72,1.65-5.25,2.32-7.93.19-.75-.78-2.11-1.14-2.6a14,14,0,0,0-3.09-3c-1-.7-3.87-2.77-4.54-.83s-1.07,3.89-1.64,5.83-1.29,4.13-2,6.17c-1.41,4.1-2.84,8.18-4.16,12.31s-2.66,8.22-3.87,12.36c-1,3.43-1.68,6.86-2.38,10.36a28.53,28.53,0,0,0-.54,3.31,6.72,6.72,0,0,0,1.95,5.2c.81.93,4.3,4.35,5.64,2.43a11.75,11.75,0,0,0,.93-3.19c2-6.92,3.95-13.84,6.12-20.71,1.45-4.59,2.92-9.17,4.49-13.73.81-2.36,1.61-4.72,2.33-7.1s1.13-4.54,1.89-6.76l-8.77-6.48c-.67,2.72-1.8,5.47-1.82,8.3,0,1.91,2.12,3.81,3.44,4.88.51.42,4.05,3.06,4.64,1.73a2.54,2.54,0,0,0,.23-1.67,3.25,3.25,0,0,1,0-1.55c.51-1.72-5.32-6.43-6.1-5Z"/><path d="M421.43,195.65c1.64-1.51,3.23-3.06,4.75-4.67a37.68,37.68,0,0,0,6.7-9.21,14.52,14.52,0,0,0,1.34-4.57,23.76,23.76,0,0,1-3.14,3.58,50.33,50.33,0,0,1-8.13,6A89.57,89.57,0,0,1,403.19,196c-6.54,2.12-14.18,4.44-21,2.31a12,12,0,0,1-1.67-.66l-.19-.37-.07-.11,0-.1-.31-.84a18.16,18.16,0,0,1-.45-1.76,21.69,21.69,0,0,1-.35-3.63,48.57,48.57,0,0,1,2.57-15.46c.56-1.52,1.47-2.94.8-4.61a11.74,11.74,0,0,0-3.61-4.54,12.53,12.53,0,0,0-2.29-1.53c-.51-.25-1.64-.86-2.23-.6-6.85,3-12.47,8-17.94,13a124.66,124.66,0,0,0-15.85,17.19c-1.29,1.71-2.57,3.42-3.83,5.15a17.61,17.61,0,0,0-3,5.62c-.2.7.76,2.07,1.09,2.51a15.07,15.07,0,0,0,2.43,2.49c.75.61,3.75,3,4.75,1.76a85.29,85.29,0,0,1,6.17-8.6q3.48-4.68,7.4-9a152.39,152.39,0,0,1,14.86-14.1,34.65,34.65,0,0,0-.14,4.32,22.17,22.17,0,0,0,11.66,18.81c7.24,4,15,2.61,22.43.08A94.57,94.57,0,0,0,421.43,195.65Z"/><path d="M380.68,198h0l.05,0Z"/><path d="M380.44,197.62h0Z"/><path d="M283.45,119.37c.64-1.19.67-1.59.09-1.22a.34.34,0,0,0-.26.16,1.32,1.32,0,0,0-.12.2l-.33.55a15.09,15.09,0,0,1-1,1.27,34.16,34.16,0,0,0-2.15,3c-.78,1.24-1.56,2.48-2.39,3.69a16.78,16.78,0,0,0-1.95,4.34l.09.59a3.67,3.67,0,0,0,.58,1.13,10,10,0,0,0,1.83,2.12,13.94,13.94,0,0,0,1.87,1.39c.36.21,1.69,1,2.22.7a10.87,10.87,0,0,0,2.4-1.56,8.8,8.8,0,0,0,1.64-1.95c1-1.44,2-2.9,2.88-4.39.66-1.08,1.52-2.09,2.11-3.21.74-1.42.15-2.67-.78-3.92a12.89,12.89,0,0,0-3.87-3.52,4.77,4.77,0,0,0-2.05-.73.77.77,0,0,0-.76.21,1.13,1.13,0,0,0-.09,1.1Z"/><path d="M755.89,170.92c-.24.37-.49.71-.76,1.06l8.08,6.61c.62-2.45,0-5.35-.67-7.74a21.85,21.85,0,0,0-4.73-8.54c-3.66-4.13-9.89-8.46-15.71-6.45-4.18,1.45-7.25,5.07-9.68,8.6a86.37,86.37,0,0,0-6.79,12.14,65.61,65.61,0,0,0-5.83,17.21,23.45,23.45,0,0,0-.15,9c.92,4,4.68,7.75,8.38,9.36,4.49,2,8.31-1.11,11.54-4a76.86,76.86,0,0,0,10.12-11.57c6.85-9.23,12.93-19.66,22.41-26.49l-8.92-7.3c.19,4.08-1,8.07-1.87,12a79.38,79.38,0,0,0-1.39,10,43.4,43.4,0,0,0-.1,9.93A18.46,18.46,0,0,0,764.51,205c2.32,2.55,6,5.52,9.77,4.81,2.44-.47,4.57-2.35,6.29-4,4-3.92,7.21-8.78,10.46-13.33a143,143,0,0,0,8-12.09c2.44-4.22,4.86-8.81,5.43-13.69.09-.72-2.31-3.11-2.85-2.34-2.21,3.21-3.78,6.85-5.74,10.23a108.88,108.88,0,0,1-6.62,10c-1.93,2.6-4,5-6.1,7.5-1.56,1.88-3.11,3.8-4.83,5.54a24.16,24.16,0,0,1-6.06,4.83,10,10,0,0,1-3.23,1,2.8,2.8,0,0,1-1.15,0c-.23,0-.45-.09-.68-.15.64.16.26.06.1,0-.47-.15.08,0,.24.13,0,0,.83.59.45.3s.57.47.5.41c1,.92.6.61.37.35,0,0,.65.81.35.4s.22.34.21.34-.27-.5-.25-.46c-.27-.47.12.44-.11-.29a15.72,15.72,0,0,1-.73-3.51,49,49,0,0,1,.32-8.89,82.59,82.59,0,0,1,1.46-10c1-4.11,2.32-8.26,2.18-12.52-.07-2.15-2.28-4.15-3.8-5.39-1.12-.93-3.6-3-5.12-1.91-7.58,5.28-12.92,13.09-18.19,20.51-2.72,3.85-5.45,7.7-8.48,11.31a45.77,45.77,0,0,1-9.6,9.15,7.06,7.06,0,0,1-2,1,9.46,9.46,0,0,1-1,.22,3.11,3.11,0,0,1-.43,0c.71,0,.17,0,0,0,1.41.43-.63-.48,1.28.64a10.15,10.15,0,0,1,3.93,3.76c-.31-.57.05.15.08.23-.07-.22-.15-.45-.21-.68a11.85,11.85,0,0,1-.19-3.14,47.16,47.16,0,0,1,3.69-15.76,103.6,103.6,0,0,1,6-12.27,42.66,42.66,0,0,1,7.21-10,12.33,12.33,0,0,1,4.93-3.17,8.1,8.1,0,0,1,1.28-.27,4.57,4.57,0,0,1,.52,0c.17,0,.8,0,.29,0,.5,0,1,.22,1.48.25s-.79-.36,0,0c.22.1,1.16.57,0,0,.79.42-.27-.19-.35-.25.94.66-1-.89-.21-.16l-.65-.63c.3.34.29.32,0,0-.85-.83.46.8,0,0s.15.3.18.36a9.69,9.69,0,0,1,.46.91c-.28-.63,0-.08,0,0,.11.33.24.66.34,1,.83,2.64.91,5.24,1.41,8a7.17,7.17,0,0,0,1.79,2.76,14.84,14.84,0,0,0,2.63,2.24c.7.46,3.51,2.18,3.75.43.07-.52.13-1,.17-1.54.14-1.7-2.06-3.61-3.19-4.53-.6-.49-3.52-2.78-4.3-1.6Z"/><path d="M828.23,78.26l-1,1a9.87,9.87,0,0,0-.74.69,5.85,5.85,0,0,0-.5,1.53c-.24.77-.48,1.54-.75,2.3-.11.34-.23.68-.36,1,.16-.4,0,.09-.11.23-1.42,2.75,7,9.36,8.18,7.37a19.06,19.06,0,0,0,1.77-5.6c.5-2.26.91-4.54,1.3-6.82a62.48,62.48,0,0,1,1.4-6.63,9.27,9.27,0,0,1,2-4.21l-8.65-6.42c.44,2-.62,4.4-1.15,6.32q-1,3.78-2.27,7.5c-1.66,5-3.44,10-5.1,15q-5.13,15.44-10,31t-9.28,30.93c-3,10.25-6,20.5-8.38,30.89-1.22,5.2-2.27,10.45-3,15.74-.48,3.33-1.06,6.68-1.38,10-.37,3.86,0,7.58,2.25,10.85,2.42,3.52,7.39,7.83,12.08,6.73,3-.69,5.26-2.9,7.14-5.15s3.71-4.68,5.42-7.15q5.13-7.38,10-14.92c4.37-6.73,8.62-13.52,12.86-20.32,2.12-3.39,4.17-6.81,6.27-10.2,1.81-3,3.77-5.84,5.42-8.88a39.6,39.6,0,0,1,2.14-3.89c.93-1.35-3.7-5.12-4.46-4s-1.81,2.15-2.69,3.21c-1,1.27-2,2.6-2.9,3.94-2.06,2.93-4.09,5.88-6.12,8.82-4.45,6.48-8.81,13-13.26,19.51-3.84,5.61-7.68,11.25-11.87,16.6-1.42,1.82-2.83,3.65-4.31,5.43a38.45,38.45,0,0,1-6.73,6.33,16.32,16.32,0,0,1-3.2,2.05,7.61,7.61,0,0,1-1.61.47c-.28,0-.55.05-.83.07.81,0-.36-.1-.36-.1s.95.35.36.11c-.3-.12-.64-.39.48.25a11.31,11.31,0,0,1,2.52,2.09c-.09-.1.85,1.08.51.63s.6.89.28.41c-.11-.15-.2-.61-.06-.09s0,0,0-.13-.13-.42-.18-.63-.07-.34-.11-.52c0,.12.06.53,0-.06-.05-.37-.07-.75-.09-1.13a23.24,23.24,0,0,1,.06-2.36c.2-2.95.85-5.85,1.22-8.79.65-5.15,1.58-10.27,2.69-15.34,2.21-10.09,5.09-20,7.89-30s5.8-20.07,8.86-30.06,6.27-20.09,9.54-30.09c3.18-9.73,6.65-19.36,9.48-29.2a12.87,12.87,0,0,0,.6-6.7c-.43-1.92-2.68-4-4.21-5-.85-.61-3.39-2.51-4.44-1.39a11.93,11.93,0,0,0-2.29,4.75,54.79,54.79,0,0,0-1.46,6.7c-.4,2.32-.7,4.66-1.12,7-.18,1-.38,2.06-.64,3.08s-.59,1.86-.83,2.6l8.58,6.34a28.19,28.19,0,0,0,.93-4.09,9.09,9.09,0,0,0,.26-1.26,8.15,8.15,0,0,0-.16-1.46c-.07-.7-.15-1.4-.22-2.1-.13-1.43-1.42-2.64-2.46-3.5-.58-.48-2.52-2-3.32-1.23Z"/><path d="M914.48,159.12c-4.63,1.37-9.66,3.36-14.23,4.77l-.36.13q-8.21,3.24-16.28,6.79c-7.16,3.14-14.32,6.36-21.32,9.87l-.62.32c-2.7-2.42-5.72-4.54-8.49-6.58l-.65-.59c-.12-.14-.24-.29-.37-.43l-.06-.07a.3.3,0,0,0,0-.08c0-.09-.2-.45-.26-.56l-.15-.47a6.25,6.25,0,0,1-.17-.72s-.05-.59-.05-.7a10.76,10.76,0,0,1,.13-2,10.16,10.16,0,0,1,1.37-3.65,14.7,14.7,0,0,1,7-5.86l.12-.05a7,7,0,0,0,0,1.45c.28,2.18,2.09,3.95,3.71,5.27,1,.81,3.67,3,5,1.86a9.06,9.06,0,0,0,.91-.84c.49-.54,0-1.63-.29-2.1l-.08-.13a19.43,19.43,0,0,0,.2-2.51,10,10,0,0,0-2.61-6.52c-3-3.6-7.37-6.51-12.21-5.71-5.9,1-11.39,5.79-12.44,11.76-1.3,7.36,5,13.34,10.19,17.53,1.62,1.31,3.29,2.67,5,3.92a77.7,77.7,0,0,0-13.54,9,22.34,22.34,0,0,0-5.07,5.38,4.08,4.08,0,0,0-.62,3.23c.68,2.3,3,4.28,5,5.44,3.17,1.82,7,1.37,10.33.45a35.77,35.77,0,0,0,4.26-1.48c3.5-1.44,8.36-3.58,10.66-7.53,1.57-2.71,1.1-5.6-.18-8.32a18.24,18.24,0,0,0-1.09-2c4.72-2.34,8.93-4.45,14.31-6.89,1.5-.68,3.55-1.54,5.08-2.15a1.64,1.64,0,0,1,.22-.14c8.06-4.31,15.48-8.29,23.48-12.1,4.05-1.94,8.15-3.76,12.23-5.63,1.25-.57,10.76-4.57,12.92-5.53.07,0,0-.14,0-.14C931,154.82,919.13,157.75,914.48,159.12ZM859,193.86a21.56,21.56,0,0,1-7.29,5,38,38,0,0,1-4.21,1.67c3.75-4,8.54-7.1,13.31-9.77A7.57,7.57,0,0,1,859,193.86Z"/><path d="M841.18,201.11l0,0C840.88,201.1,841.13,201.11,841.18,201.11Z"/><path d="M844.77,204.69h0S844.77,204.72,844.77,204.69Z"/><path d="M692.23,160.79a3.82,3.82,0,0,0-2.1.64l7.71,6.31c.15-.73-.12.62.23-.6.09-.32.12-.66.2-1a13.42,13.42,0,0,1,.73-2.07,15.35,15.35,0,0,1,2.23-3.89l-8.68-7.1c-.22,2.05-1.42,4-2.25,5.81-1,2.22-2,4.44-3,6.68a122.46,122.46,0,0,0-4.62,12.46A70.59,70.59,0,0,0,680,190.92c-.43,4-.74,8.62.56,12.48a16.91,16.91,0,0,0,9.75,10,10.08,10.08,0,0,0,7.63-.63,28,28,0,0,0,7.28-4.95,100.45,100.45,0,0,0,8.77-8.86c3-3.48,5.92-7.09,8.93-10.58,1.54-1.79,3.11-3.57,4.73-5.3s3.46-3.24,4.61-5.34c.53-1-2.21-3.54-3.18-3.15-3.53,1.43-6.23,4.75-8.82,7.45s-5.22,5.64-7.88,8.42-5.34,5.52-8.18,8.09a40.66,40.66,0,0,1-8.39,6.26c-2,1-5,2.05-6.94,2a12.84,12.84,0,0,1-1.64-.17c-.28,0-.55-.14-.82-.18s.29.09.3.09c-.17-.05-.81-.37-.13,0s.23.11.1,0a9.65,9.65,0,0,1,1.1.8c1.23,1-.58-.61.58.53a9.2,9.2,0,0,1,.94,1c-.45-.6.5.91.14.2s0,.11.06.2a5.27,5.27,0,0,1-.19-.51,14.82,14.82,0,0,1-.55-4.64,47,47,0,0,1,.26-6.05,69.16,69.16,0,0,1,2.42-12,113.45,113.45,0,0,1,4.59-12.93c1-2.33,2-4.63,3-6.94.92-2.07,2.24-4.22,2.34-6.53.09-2-2.33-4.13-3.69-5.25-.74-.6-4-3.2-5-1.85a18.57,18.57,0,0,0-2.21,4.81c-.58,1.72-1.08,3.39-.51,5.18.63,2,2.56,3.67,4.22,4.77.81.54,3.14,2,3.58.41a5.25,5.25,0,0,0-.44-2.71,6.69,6.69,0,0,0-2.29-2.89c-.71-.57-1.88-1.52-2.88-1.35Z"/><path d="M704,121.53c-.73,0-1-.14-1.56.28a3.12,3.12,0,0,0-.4.32,7,7,0,0,0-.88,1,16.86,16.86,0,0,0-1.66,3,27.65,27.65,0,0,0-1.49,3.67c-.29.95-.56,1.91-.86,2.85-.2.64.73,2,1,2.36a13.47,13.47,0,0,0,2.26,2.33,9.64,9.64,0,0,0,2.5,1.59c.43.15,1.65.65,2,.06.42-.82.81-1.65,1.22-2.48.52-1,.92-2.12,1.38-3.17a31.66,31.66,0,0,1,1.51-3,7.7,7.7,0,0,1,.76-1.13l.36-.39a1.66,1.66,0,0,0,.42-.86l-.1-.65-.34-.79a9.77,9.77,0,0,0-1.82-2.28,12.7,12.7,0,0,0-2-1.65,5.4,5.4,0,0,0-2.27-1.07Z"/><path d="M504.1,77.24a10.15,10.15,0,0,1-1,2.34c-.29.5-.65,1-1,1.44a10.31,10.31,0,0,0-1,2,34.87,34.87,0,0,0-2.37,6.77c-.13.8.72,2,1.13,2.6A15.25,15.25,0,0,0,502.44,95a10.7,10.7,0,0,0,2.75,1.75c.43.17,1.88.72,2.15.07,5.64-13.39,7.49-28,11.88-41.81a64.53,64.53,0,0,1,4.2-10.39l-8.9-7.28c-.1,7.43-3.35,14.38-5.85,21.23s-4.62,14.16-6.91,21.24q-5.33,16.52-10.78,33c-4.73,14.32-9.4,28.65-13.68,43.12-4.68,15.78-8.89,31.69-12.78,47.68-1.74,7.15-3.86,14.22-5.29,21.43s-2.62,14.91-1.92,22.4a30.55,30.55,0,0,0,1.17,5.75,7.57,7.57,0,0,0,3.18,3.6c.46.3,2.59,1.59,2.7.31.27-3.31.4-6.62.69-9.93a88.58,88.58,0,0,1,1.64-10.61c1.54-7.23,3.61-14.36,5.56-21.5,2.06-7.54,3.87-15.15,5.89-22.71q3.19-12,6.68-24c4.4-15.15,9.19-30.17,14.16-45.14q5.29-16,10.48-31.95,3.35-10.3,6.63-20.62c2.25-7.1,5.58-14,7-21.34a27.66,27.66,0,0,0,.54-5.21c0-2.1-2.34-4.2-3.78-5.38-.62-.51-4.36-3.36-5.11-1.9-3.21,6.2-5.2,13-6.91,19.75-1.84,7.27-3.35,14.62-5.3,21.86A92.89,92.89,0,0,1,499,89.27l8.55,7a43,43,0,0,1,2-6.72,34,34,0,0,0,.76-4.36c.18-1,.51-1.89.62-2.86.23-2.11-6.24-7.4-6.86-5.08Z"/><path d="M465.62,43.62A226.18,226.18,0,0,1,440.28,58.7C431.85,63.07,423,67.36,413.84,70L422,78.1A469.93,469.93,0,0,1,504.65,37a456.25,456.25,0,0,1,67.7-19.55c21.62-4.52,44-7.59,66.17-5.89,10.35.79,20.86,2.62,30.41,6.28,2.35.91,4.67,1.92,6.93,3-.54-.27.83.43,1.06.56.55.29,1.1.6,1.64.91,1.09.62,2.15,1.28,3.2,1.94.78.5.16.1,0,0l.69.47c.51.35,1,.72,1.53,1.09s1,.74,1.5,1.13l.65.52c1.11.86-.83-.73.24.19.9.79,1.8,1.57,2.66,2.38l.77.74c-.14-.13-.74-.77-.06-.06s1.11,1.15,1.65,1.75c8,8.9,10.5,21.95,9.09,33.93-1.52,13-7.24,24.92-13.92,36-13.74,22.82-32.45,42.41-52.36,59.95s-41.12,33-63,47.76c-25.18,17-51.35,32.67-78.85,45.63-26.6,12.54-54.56,22.71-83.6,27.75-5.86,1-11.75,1.66-17.63,2.49-4.37.61-8.73,1.25-13.13,1.61a53.2,53.2,0,0,1-12.86-.25,23.87,23.87,0,0,1-5.43-1.48,10.9,10.9,0,0,1-2.09-1.08c-.14-.09-.59-.42,0,0-.17-.12-.34-.27-.52-.38-.62-.38,0,0,.09.09l-.72-.65c.72.66-.19-.21-.38-.42.5.56-.42-.57-.53-.72a18.69,18.69,0,0,1-1.25-2.26,24.19,24.19,0,0,1-2.2-7.24c-.17-1.41-1.44-2.59-2.53-3.39-.25-.19-2.87-1.73-2.72-.5.62,5.09,1.71,9.59,5,13.69A27.58,27.58,0,0,0,364.27,292c8.75,3.05,18.41,2.11,27.43,1,12.37-1.49,24.67-3.07,36.83-5.84a315.89,315.89,0,0,0,43.55-13.46c29.21-11.27,57-26.1,83.55-42.61a716.55,716.55,0,0,0,68.93-48.37c21.53-17.19,42.08-36.15,58.63-58.29,7.92-10.6,15.3-22.13,20.19-34.48,4.84-12.2,6.94-25.76,3.31-38.58s-12.73-23-23.26-30.54A89.87,89.87,0,0,0,652.89,7C630.66,1.36,607,2.58,584.46,5.83a419.94,419.94,0,0,0-64.8,15.11,455.6,455.6,0,0,0-86.53,37.6q-10,5.62-19.81,11.72c-2.07,1.28,5.76,8.91,8.18,8.1,18.39-6.1,35.41-16.92,50.35-29.13,1.42-1.15-4.32-6.94-6.23-5.61Z"/><path d="M104.58,62.09A99.62,99.62,0,0,0,89.72,68,118.14,118.14,0,0,0,75.61,75.6c-1.36.87,1.93,4.33,2.35,4.75,1.09,1.07,3.81,3.69,5.58,3.11,12.18-4,23-11.52,34.45-17.23,11.64-5.82,23.54-11.11,35.62-16C176.7,41,200.4,33.13,224.11,25.59A406.4,406.4,0,0,1,273.6,12.86c9.5-1.76,19.1-3.53,28.73-4.38,9.82-.87,20.66-1,29.79,3.19l.83.4c-.18-.09-.59-.34.18.11l1.38.8c.68.42-.63-.45,0,0l.77.56c.55.38,0-.06-.13-.11,1.11.71-.44-.63.35.33-.71-.86.42.63.2.27a6.61,6.61,0,0,0,.47.94,10.65,10.65,0,0,1,.59,2.55c.4,4.49-1.56,8.86-3.79,12.64a94.32,94.32,0,0,1-9.36,12.44q-5.92,7-12.26,13.61c-17.14,18-36.12,34-55.23,49.82-20.23,16.72-40.32,33.62-60.55,50.33q-32.07,26.48-64.45,52.56-32.11,26-64.28,51.91c-10.52,8.47-21.12,16.84-31.47,25.51-5.13,4.3-10.2,8.66-15.15,13.16-4.12,3.74-8.41,7.38-12.36,11.31-3.67,3.65-6.77,7.62-7.86,12.79-.21,1,1.27,2.48,1.84,3a7.23,7.23,0,0,0,3.49,2.22c9.91,1.49,19.34-2.55,28.44-5.82,10.81-3.89,21.79-7.26,32.75-10.69,24.11-7.57,48.39-14.72,72.9-20.87,12.16-3,24.42-5.69,36.66-8.38s24.53-5.3,36.87-7.53c23.9-4.34,48-7.06,72.29-6.43a174.23,174.23,0,0,1,21.42,1.46,59.46,59.46,0,0,1,11.1,2.59c2.79,1,5.86,2.35,7.85,4.37a10.76,10.76,0,0,1,2.11,3.22,4.9,4.9,0,0,0,2.53,2.28c.89.32,1.17,0,.8-.88-3-6.8-10-10.82-16.8-13-7.48-2.37-15.42-3.09-23.23-3.44a330.2,330.2,0,0,0-65.13,3.65c-25.32,3.87-50.36,9.65-75.3,15.43-25.21,5.85-50.11,12.86-74.88,20.32-12.33,3.71-24.7,7.28-37,11.1-9.94,3.09-19.8,7.08-30.34,7.55a25.1,25.1,0,0,1-7.32-.77l5.33,5.26c1.8-4.79,6-8.82,9.76-12.12,4.46-3.92,9-7.73,13.57-11.56,10.49-8.87,21.18-17.49,31.93-26q32.67-26,65.09-52.32,32.73-26.43,65.29-53.07c21-17.24,41.72-34.8,62.68-52.08,19.45-16,39-32,56.93-49.73a286,286,0,0,0,24.74-27.23c5.61-7.18,11.79-16.7,7.45-25.95-2.81-6-8.7-10.35-14.47-13.25A47.17,47.17,0,0,0,314,.58c-10.46-1.3-21-.21-31.36,1.36a400.72,400.72,0,0,0-51.52,10.85c-9.68,2.8-19.27,5.91-28.83,9.07-12.56,4.14-25.12,8.3-37.55,12.83-12.25,4.46-24.37,9.26-36.29,14.56-12.08,5.38-23.72,11.4-35.26,17.84a140.43,140.43,0,0,1-17.12,8.26l7.94,7.85a139.56,139.56,0,0,1,12.78-8.15,69.61,69.61,0,0,1,13.82-6.33c2.15-.68-3.69-7.3-6.07-6.63Z"/><path d="M116.69,171.49a11.24,11.24,0,0,0-5,.24c-2.38.89.71,4.53,1.61,5.49a17.7,17.7,0,0,0,4.16,3.41c1,.54,2.19,1.25,3.36,1.06a87.48,87.48,0,0,0,13.16-3.6c4.69-1.52,9.48-2.62,14.29-3.72,10.15-2.34,20.34-4.55,30.58-6.48,20.39-3.85,40.89-7.42,61.53-9.64q8.73-.93,17.49-1.61c2.92-.23,5.85-.44,8.77-.62l3.72-.26a8.88,8.88,0,0,1,3.17.08c.94.27.49-.88.27-1.24a5.84,5.84,0,0,0-2.42-2.09,12.67,12.67,0,0,0-6.08-.67c-2.62.15-5.24.22-7.87.34q-7.95.4-15.89,1c-10.69.77-21.34,1.91-32,3.12s-21.35,2.78-32,4.4c-10.49,1.6-21,3.22-31.41,5.15-5.78,1.07-11.58,2.11-17.3,3.45-5.26,1.23-10.79,3.07-16.25,2.48l8.21,9.93a8.4,8.4,0,0,0,4-1.4c.56-.33.06-1.54-.11-1.92a10.1,10.1,0,0,0-1.93-2.82,21.71,21.71,0,0,0-2.52-2.27,8.64,8.64,0,0,0-3.53-1.79Z"/></g></g></svg>