<svg xmlns="http://www.w3.org/2000/svg" viewBox="0 0 814 553.53"><defs><style>.cls-1{font-size:50px;font-family:Lato-Bold, Lato;font-weight:700;letter-spacing:0.25em;}.cls-1,.cls-2{fill:#fff;}</style></defs><g id="Layer_2" data-name="Layer 2"><g id="Layer_1-2" data-name="Layer 1"><text class="cls-1" transform="translate(205.93 539.28)">ZION DIALS</text><path class="cls-2" d="M534,123.13a13.34,13.34,0,0,1-1.31,3.2c-.4.68-.9,1.32-1.34,2A12.51,12.51,0,0,0,530,131c-1.17,3-2.74,6.11-3.26,9.28-.18,1.11,1,2.84,1.57,3.59a20.7,20.7,0,0,0,3.45,3.55,15.38,15.38,0,0,0,3.81,2.42c.59.24,2.59,1,3,.1,7.72-18.34,10.25-38.38,16.27-57.26a88.85,88.85,0,0,1,5.74-14.22l-12.29-10c-.13,10.17-4.57,19.68-8,29.07-3.49,9.56-6.33,19.38-9.46,29.07q-7.29,22.64-14.76,45.19c-6.49,19.61-12.88,39.24-18.74,59-6.41,21.62-12.17,43.39-17.5,65.3-2.38,9.78-5.28,19.46-7.24,29.34-2,10.05-3.59,20.41-2.63,30.67a41.41,41.41,0,0,0,1.6,7.88c.61,2,2.71,3.89,4.41,5,.65.42,3.6,2.2,3.74.43.38-4.53.55-9.06.95-13.59a118.89,118.89,0,0,1,2.25-14.53c2.11-9.91,4.94-19.67,7.61-29.44,2.82-10.32,5.3-20.75,8.06-31.1q4.39-16.49,9.14-32.88c6-20.74,12.59-41.31,19.39-61.8q7.26-21.85,14.36-43.76,4.58-14.1,9.07-28.23c3.1-9.72,7.65-19.16,9.59-29.22a40.59,40.59,0,0,0,.74-7.14c0-2.9-3.24-5.79-5.23-7.43-.85-.69-6-4.62-7.06-2.62-4.39,8.49-7.11,17.83-9.45,27.06-2.53,10-4.6,20-7.26,29.92A125.32,125.32,0,0,1,527,139.59q5.89,4.83,11.8,9.65c.48-3.1,1.81-6.22,2.78-9.2a46.16,46.16,0,0,0,1-6c.25-1.32.7-2.59.84-3.92.33-2.92-8.63-10.23-9.5-7"/><path class="cls-2" d="M481.29,77.09A309.38,309.38,0,0,1,446.6,97.74c-11.54,6-23.68,11.85-36.21,15.46l11.3,11.19A643.12,643.12,0,0,1,534.83,68.12a624,624,0,0,1,92.7-26.76c29.61-6.19,60.31-10.39,90.6-8.07,14.17,1.09,28.58,3.59,41.62,8.6,3.23,1.24,6.4,2.62,9.5,4.17-.77-.39,1.12.59,1.43.76.76.41,1.51.82,2.25,1.25,1.49.85,2.94,1.75,4.39,2.66,1.07.68.19.13,0,0l1,.64,2.09,1.49c.69.51,1.37,1,2,1.55l.89.71c1.52,1.19-1.14-1,.32.26,1.23,1.07,2.46,2.14,3.65,3.26.35.33.7.66,1,1-.18-.17-1-1.06-.09-.09.76.8,1.52,1.58,2.26,2.4,10.92,12.14,14.36,30,12.43,46.42-2.09,17.81-9.92,34.11-19.07,49.31-18.81,31.26-44.43,58.08-71.69,82.09-27.08,23.85-56.31,45.23-86.19,65.41-34.48,23.27-70.32,44.72-108,62.47-36.42,17.17-74.7,31.1-114.47,38-8,1.39-16.1,2.29-24.15,3.42-6,.84-12,1.71-18,2.19a72.9,72.9,0,0,1-17.59-.33,32.63,32.63,0,0,1-7.43-2,13.79,13.79,0,0,1-2.85-1.48c-.19-.12-.81-.58.05,0a8.58,8.58,0,0,0-.71-.52c-.85-.51,0,0,.14.13-.34-.29-.66-.59-1-.88,1,.92-.24-.28-.5-.58.71.81-.57-.76-.72-1a25.29,25.29,0,0,1-1.7-3.07,32.81,32.81,0,0,1-3-9.9c-.23-2-2-3.6-3.51-4.71-.36-.26-4-2.4-3.79-.69.85,7,2.35,13.14,6.84,18.77a38,38,0,0,0,17,12.2c12,4.17,25.22,2.9,37.59,1.41,16.93-2,33.78-4.2,50.42-8a433.29,433.29,0,0,0,59.64-18.44c40-15.43,78-35.74,114.4-58.35A979.27,979.27,0,0,0,699,267.63c29.48-23.54,57.62-49.5,80.27-79.81,10.86-14.52,21-30.31,27.66-47.22,6.62-16.71,9.5-35.27,4.53-52.84-4.92-17.4-17.46-31.49-31.91-41.87a122.91,122.91,0,0,0-41.85-19c-30.43-7.69-62.9-6-93.7-1.58C614,29.68,584.26,37,555.29,46c-41.17,12.84-80.86,30.47-118.49,51.5q-13.76,7.7-27.13,16c-2.84,1.78,8,12.3,11.3,11.19,25.18-8.36,48.49-23.17,68.95-39.89,2-1.6-6-9.62-8.63-7.77"/><path class="cls-2" d="M134,92c-7,2.13-13.61,5.42-20.13,8.63a160.14,160.14,0,0,0-19,10.89c-1.85,1.25,2.82,5.9,3.41,6.46a19.61,19.61,0,0,0,4,3c1,.53,2.66,1.5,3.8,1.09,16.53-5.92,31.13-16.57,46.55-24.78,15.73-8.38,31.84-16,48.2-23.11C232.05,60.69,264.22,49.12,296.4,38A559.86,559.86,0,0,1,363.71,18.8c12.94-2.73,26-5.49,39.17-7,13.42-1.54,28.26-2,40.87,3.32.39.17.77.33,1.15.51-.26-.12-.84-.45.24.14.64.34,1.27.72,1.91,1,1,.5-.87-.62,0,0,.35.24.71.5,1.07.73.78.51-.07-.09-.19-.16,1.49.85-.58-.79.48.43-1-1.17.59.84.26.35a10.5,10.5,0,0,0,.67,1.26,14.76,14.76,0,0,1,.9,3.45c.7,6.14-1.82,12.19-4.75,17.43-3.48,6.21-7.92,11.82-12.37,17.36q-7.86,9.78-16.31,19.06C394,101.92,368.58,124.59,343,146.88c-27.11,23.6-54,47.43-81.12,71q-43,37.38-86.37,74.22-43.06,36.67-86.17,73.31c-14.1,12-28.32,23.79-42.19,36-6.87,6.06-13.65,12.2-20.27,18.54-5.52,5.27-11.26,10.4-16.53,15.91C5.43,441,1.33,446.58,0,453.7c-.26,1.41,1.85,3.39,2.66,4.14,1.28,1.2,3.1,2.73,4.91,3,13.65,1.7,26.32-4.2,38.69-9,14.66-5.7,29.57-10.69,44.45-15.79,32.75-11.2,65.72-21.84,99.06-31.11,16.55-4.6,33.23-8.65,49.9-12.76s33.38-8.11,50.2-11.61c32.56-6.77,65.41-11.34,98.72-11.34,9.81,0,19.63.06,29.38,1.26a80.64,80.64,0,0,1,15.29,3.16c3.84,1.26,8.1,3,10.89,5.69a14.79,14.79,0,0,1,3,4.34,6.77,6.77,0,0,0,3.56,3c1.22.41,1.59-.11,1.06-1.24-4.31-9.2-14.09-14.46-23.45-17.15-10.33-3-21.22-3.69-31.92-3.9a453.54,453.54,0,0,0-89,7.28c-34.52,6.2-68.6,15-102.53,23.78-34.3,8.88-68.14,19.36-101.79,30.43-16.74,5.51-33.56,10.83-50.25,16.49C39.3,446.93,25.92,452.7,11.5,453.71a34.33,34.33,0,0,1-10-.8L9,460c2.3-6.61,7.91-12.27,12.93-16.92,6-5.52,12.1-10.9,18.18-16.3,14-12.51,28.38-24.68,42.79-36.77q43.81-36.74,87.26-73.89,43.88-37.33,87.51-74.94c28.14-24.34,55.89-49.11,84-73.49,26.06-22.61,52.23-45.19,76.18-70.07a391.74,391.74,0,0,0,32.92-38.15c7.43-10,15.55-23.27,9.27-35.81C456,15.54,447.72,9.75,439.7,6A64.31,64.31,0,0,0,418.55.49c-14.36-1.41-28.75.44-42.88,3C352,7.67,328.51,12.83,305.52,20.11c-13.15,4.17-26.16,8.77-39.15,13.43-17.05,6.11-34.09,12.25-50.94,18.88C198.82,59,182.39,66,166.27,73.63c-16.35,7.78-32.08,16.43-47.65,25.65a194.33,194.33,0,0,1-23.14,11.9l11.23,10.56a191.87,191.87,0,0,1,17.21-11.6A95.21,95.21,0,0,1,142.61,101c2.94-1-5.35-10-8.63-8.95"/><path class="cls-2" d="M154.42,241.38c-2.3-.14-4.69-.38-6.88.5-3.25,1.31,1.14,6.21,2.41,7.49a24,24,0,0,0,5.83,4.55c1.37.71,3.06,1.64,4.66,1.34,6.15-1.15,12-3.31,17.88-5.39,6.37-2.25,12.89-3.92,19.43-5.6,13.82-3.56,27.68-6.94,41.64-10,27.76-6,55.69-11.61,83.85-15.37,7.95-1.06,15.92-2,23.89-2.82q6-.63,12-1.15c1.69-.15,3.38-.34,5.07-.5a12.46,12.46,0,0,1,4.35,0c1.29.35.65-1.22.33-1.7a7.9,7.9,0,0,0-3.39-2.77c-2.67-1.14-5.51-.94-8.34-.71-3.58.3-7.18.48-10.76.75q-10.87.81-21.73,1.89c-14.6,1.43-29.15,3.37-43.68,5.38s-29.14,4.54-43.65,7.13c-14.29,2.55-28.6,5.15-42.8,8.15-7.88,1.66-15.78,3.3-23.57,5.33-7.15,1.87-14.66,4.58-22.15,4l11.64,13.36a11.72,11.72,0,0,0,5.42-2.06c.75-.47,0-2.12-.23-2.64a13.94,13.94,0,0,0-2.75-3.8,28.49,28.49,0,0,0-3.55-3c-1.18-.85-3.35-2.24-4.91-2.34"/></g></g></svg>